<?xml version="1.0" encoding="UTF-8" standalone="no"?>
<!DOCTYPE svg PUBLIC "-//W3C//DTD SVG 1.1//EN"
 "http://www.w3.org/Graphics/SVG/1.1/DTD/svg11.dtd">
<!-- Generated by graphviz version 2.38.0 (20140413.2041)
 -->
<!-- Title: d Pages: 1 -->
<svg width="296pt" height="198pt"
 viewBox="0.00 0.00 295.73 197.60" xmlns="http://www.w3.org/2000/svg" xmlns:xlink="http://www.w3.org/1999/xlink">
<g id="graph0" class="graph" transform="scale(1 1) rotate(0) translate(4 193.6)">
<title>d</title>
<polygon fill="white" stroke="none" points="-4,4 -4,-193.6 291.732,-193.6 291.732,4 -4,4"/>
<!-- root -->
<g id="node1" class="node"><title>root</title>
<ellipse fill="black" stroke="black" cx="104.13" cy="-173.8" rx="1.8" ry="1.8"/>
<text text-anchor="middle" x="57.4213" y="-178.4" font-family="Times,serif" font-size="14.00">inbound request</text>
</g>
<!-- view_submissions -->
<g id="node2" class="node"><title>view_submissions</title>
<polygon fill="none" stroke="black" points="163.083,-122 160.083,-126 139.083,-126 136.083,-122 45.177,-122 45.177,-86 163.083,-86 163.083,-122"/>
<text text-anchor="middle" x="104.13" y="-99.8" font-family="Times,serif" font-size="14.00">View submissions</text>
</g>
<!-- root&#45;&gt;view_submissions -->
<g id="edge1" class="edge"><title>root&#45;&gt;view_submissions</title>
<path fill="none" stroke="black" d="M104.13,-171.623C104.13,-167.044 104.13,-149.891 104.13,-134.137"/>
<polygon fill="none" stroke="black" points="104.13,-134.07 100.13,-128.071 104.13,-122.07 108.13,-128.07 104.13,-134.07"/>
<text text-anchor="middle" x="123.568" y="-142.8" font-family="Times,serif" font-size="14.00" fill="blue">newest</text>
</g>
<!-- view_submissions&#45;&gt;view_submissions -->
<g id="edge3" class="edge"><title>view_submissions&#45;&gt;view_submissions</title>
<path fill="none" stroke="black" d="M162.925,-107.916C186.292,-108.125 205.856,-106.82 205.856,-104 205.856,-101.687 192.691,-100.393 175.062,-100.118"/>
<polygon fill="none" stroke="black" points="174.925,-100.118 168.914,-104.101 162.925,-100.084 168.936,-96.101 174.925,-100.118"/>
<text text-anchor="middle" x="219.077" y="-99.8" font-family="Times,serif" font-size="14.00" fill="blue">filter</text>
</g>
<!-- view_submissions&#45;&gt;view_submissions -->
<g id="edge6" class="edge"><title>view_submissions&#45;&gt;view_submissions</title>
<path fill="none" stroke="red" d="M163.218,-111.007C206.058,-113.329 248.856,-110.993 248.856,-104 248.856,-97.6624 213.707,-95.1501 175.231,-96.4629"/>
<polygon fill="none" stroke="red" points="175.206,-96.4639 169.389,-100.725 163.218,-96.9932 169.036,-92.7324 175.206,-96.4639"/>
<text text-anchor="middle" x="268.294" y="-99.8" font-family="Times,serif" font-size="14.00" fill="red">newest</text>
</g>
<!-- view_submission -->
<g id="node3" class="node"><title>view_submission</title>
<polygon fill="none" stroke="black" points="160.134,-36 48.1261,-36 48.1261,-0 160.134,-0 160.134,-36"/>
<text text-anchor="middle" x="104.13" y="-13.8" font-family="Times,serif" font-size="14.00">View submission</text>
</g>
<!-- view_submissions&#45;&gt;view_submission -->
<g id="edge2" class="edge"><title>view_submissions&#45;&gt;view_submission</title>
<path fill="none" stroke="black" d="M45.3197,-95.0919C29.4994,-89.9738 14.1171,-81.6155 4.46793,-68 -8.53502,-49.6521 10.9987,-37.8517 36.1202,-30.4413"/>
<polygon fill="none" stroke="black" points="36.3511,-30.3808 41.1405,-24.99 47.9588,-27.3376 43.1693,-32.7285 36.3511,-30.3808"/>
<text text-anchor="middle" x="28.4611" y="-56.8" font-family="Times,serif" font-size="14.00" fill="blue">:item_id</text>
</g>
<!-- view_submissions&#45;&gt;view_submission -->
<g id="edge4" class="edge"><title>view_submissions&#45;&gt;view_submission</title>
<path fill="none" stroke="black" stroke-width="2" d="M100.963,-85.971C100.048,-80.2784 99.1747,-73.8852 98.7228,-68 98.1896,-61.0559 98.5417,-53.5754 99.2702,-46.6011"/>
<polygon fill="black" stroke="black" stroke-width="2" points="102.803,-46.5822 100.652,-36.2082 95.8644,-45.6598 102.803,-46.5822"/>
<text text-anchor="middle" x="115.834" y="-56.8" font-family="Times,serif" font-size="14.00" fill="blue">create</text>
</g>
<!-- view_submission&#45;&gt;view_submissions -->
<g id="edge5" class="edge"><title>view_submission&#45;&gt;view_submissions</title>
<path fill="none" stroke="black" d="M126.677,-36.0457C135.623,-45.0003 142.802,-56.4865 138.13,-68 136.96,-70.8848 135.424,-73.6627 133.653,-76.3048"/>
<polygon fill="none" stroke="black" points="133.519,-76.4689 132.821,-83.6461 125.927,-85.7617 126.626,-78.5845 133.519,-76.4689"/>
<text text-anchor="middle" x="158.568" y="-56.8" font-family="Times,serif" font-size="14.00" fill="blue">newest</text>
</g>
<!-- view_submission&#45;&gt;view_submission -->
<g id="edge7" class="edge"><title>view_submission&#45;&gt;view_submission</title>
<path fill="none" stroke="black" d="M160.605,-25.8168C183.674,-26.3068 203.132,-23.7012 203.132,-18 203.132,-13.1674 189.151,-10.559 170.841,-10.1748"/>
<polygon fill="black" stroke="black" points="170.602,-6.67487 160.605,-10.1832 170.608,-13.6749 170.602,-6.67487"/>
<text text-anchor="middle" x="213.629" y="-13.8" font-family="Times,serif" font-size="14.00" fill="blue">edit</text>
</g>
</g>
</svg>
