<?xml version="1.0" encoding="UTF-8" standalone="no"?>
<!DOCTYPE svg PUBLIC "-//W3C//DTD SVG 1.1//EN"
 "http://www.w3.org/Graphics/SVG/1.1/DTD/svg11.dtd">
<!-- Generated by graphviz version 2.38.0 (20140413.2041)
 -->
<!-- Title: %3 Pages: 1 -->
<svg width="187pt" height="350pt"
 viewBox="0.00 0.00 187.00 350.00" xmlns="http://www.w3.org/2000/svg" xmlns:xlink="http://www.w3.org/1999/xlink">
<g id="graph0" class="graph" transform="scale(1 1) rotate(0) translate(4 346)">
<title>%3</title>
<polygon fill="white" stroke="none" points="-4,4 -4,-346 183,-346 183,4 -4,4"/>
<g id="clust1" class="cluster"><title>cluster_0</title>
<polygon fill="none" stroke="black" points="62,-8 62,-226 163,-226 163,-8 62,-8"/>
<text text-anchor="middle" x="112.5" y="-210.8" font-family="Times,serif" font-size="14.00">client subgraph</text>
</g>
<!-- d -->
<g id="node1" class="node"><title>d</title>
<ellipse fill="none" stroke="black" cx="97" cy="-178" rx="27" ry="18"/>
<text text-anchor="middle" x="97" y="-173.8" font-family="Times,serif" font-size="14.00">d</text>
</g>
<!-- c -->
<g id="node2" class="node"><title>c</title>
<ellipse fill="none" stroke="black" cx="99" cy="-106" rx="27" ry="18"/>
<text text-anchor="middle" x="99" y="-101.8" font-family="Times,serif" font-size="14.00">c</text>
</g>
<!-- d&#45;&#45;c -->
<g id="edge1" class="edge"><title>d&#45;&#45;c</title>
<path fill="none" stroke="red" stroke-width="3" d="M97.4944,-159.697C97.8044,-148.846 98.2024,-134.917 98.5113,-124.104"/>
</g>
<!-- e -->
<g id="node6" class="node"><title>e</title>
<ellipse fill="none" stroke="black" cx="27" cy="-106" rx="27" ry="18"/>
<text text-anchor="middle" x="27" y="-101.8" font-family="Times,serif" font-size="14.00">e</text>
</g>
<!-- d&#45;&#45;e -->
<g id="edge6" class="edge"><title>d&#45;&#45;e</title>
<path fill="none" stroke="black" d="M82.496,-162.496C70.4822,-150.482 53.4941,-133.494 41.4855,-121.485"/>
</g>
<!-- f -->
<g id="node3" class="node"><title>f</title>
<ellipse fill="none" stroke="black" cx="98" cy="-34" rx="27" ry="18"/>
<text text-anchor="middle" x="98" y="-29.8" font-family="Times,serif" font-size="14.00">f</text>
</g>
<!-- c&#45;&#45;f -->
<g id="edge2" class="edge"><title>c&#45;&#45;f</title>
<path fill="none" stroke="red" stroke-width="3" d="M98.7528,-87.6966C98.5978,-76.8463 98.3988,-62.9167 98.2443,-52.1043"/>
</g>
<!-- a -->
<g id="node4" class="node"><title>a</title>
<ellipse fill="none" stroke="black" cx="124" cy="-324" rx="27" ry="18"/>
<text text-anchor="middle" x="124" y="-319.8" font-family="Times,serif" font-size="14.00">a</text>
</g>
<!-- a&#45;&#45;d -->
<g id="edge8" class="edge"><title>a&#45;&#45;d</title>
<path fill="none" stroke="black" d="M120.797,-305.916C115.6,-278.202 105.393,-223.762 100.199,-196.062"/>
</g>
<!-- b -->
<g id="node5" class="node"><title>b</title>
<ellipse fill="none" stroke="black" cx="152" cy="-252" rx="27" ry="18"/>
<text text-anchor="middle" x="152" y="-247.8" font-family="Times,serif" font-size="14.00">b</text>
</g>
<!-- a&#45;&#45;b -->
<g id="edge3" class="edge"><title>a&#45;&#45;b</title>
<path fill="none" stroke="black" d="M130.636,-306.411C135.099,-295.252 140.959,-280.604 145.412,-269.47"/>
</g>
<!-- b&#45;&#45;d -->
<g id="edge4" class="edge"><title>b&#45;&#45;d</title>
<path fill="none" stroke="black" d="M140.336,-235.731C131.002,-223.512 117.977,-206.46 108.647,-194.247"/>
</g>
<!-- b&#45;&#45;c -->
<g id="edge5" class="edge"><title>b&#45;&#45;c</title>
<path fill="none" stroke="black" d="M150.325,-234.023C148.058,-215.327 143.078,-184.649 133,-160 127.456,-146.441 118.401,-132.555 111.028,-122.4"/>
</g>
<!-- e&#45;&#45;f -->
<g id="edge7" class="edge"><title>e&#45;&#45;f</title>
<path fill="none" stroke="black" d="M41.7112,-90.496C53.8966,-78.4822 71.1275,-61.4941 83.3076,-49.4855"/>
</g>
</g>
</svg>
